<?xml version="1.0" standalone="no"?>
<!DOCTYPE svg PUBLIC "-//W3C//DTD SVG 20010904//EN"
 "http://www.w3.org/TR/2001/REC-SVG-20010904/DTD/svg10.dtd">
<svg version="1.0" xmlns="http://www.w3.org/2000/svg"
 width="4167.000000pt" height="3946.000000pt" viewBox="0 0 4167.000000 3946.000000"
 preserveAspectRatio="xMidYMid meet">

<g transform="translate(0.000000,3946.000000) scale(0.100000,-0.100000)"
fill="#ffffff" stroke="none">
<path d="M41400 39419 c-124 -22 -1483 -253 -3020 -514 -2819 -480 -3097 -527
-3470 -591 -113 -19 -295 -50 -405 -69 -110 -19 -292 -50 -405 -69 -166 -29
-2509 -428 -3498 -596 -127 -22 -339 -58 -470 -81 -130 -22 -313 -53 -407 -69
-93 -16 -276 -47 -405 -69 -129 -22 -327 -56 -440 -75 -113 -19 -563 -96
-1000 -171 -437 -75 -871 -149 -965 -165 -93 -16 -408 -70 -700 -120 -291 -50
-606 -104 -700 -120 -93 -16 -406 -70 -695 -119 -289 -50 -853 -146 -1255
-215 -712 -122 -1172 -201 -2130 -366 -258 -45 -678 -117 -932 -161 -539 -92
-1276 -219 -1683 -289 -157 -27 -467 -81 -690 -120 -456 -79 -1296 -224 -1590
-275 -107 -19 -298 -52 -425 -74 -126 -22 -347 -61 -490 -86 -143 -24 -361
-63 -485 -85 -124 -22 -307 -54 -407 -72 -101 -17 -183 -35 -183 -38 0 -4 39
-10 88 -13 140 -11 1959 -97 2567 -122 204 -9 512 -22 685 -30 173 -8 536 -24
805 -35 504 -21 1035 -43 1440 -60 337 -14 956 -37 1480 -55 696 -23 860 -32
883 -44 l21 -11 -25 -68 c-37 -99 -200 -481 -354 -832 -21 -47 -76 -173 -123
-280 -87 -200 -328 -740 -527 -1185 -62 -137 -149 -333 -195 -435 -45 -102
-142 -318 -215 -480 -133 -298 -373 -838 -515 -1160 -113 -255 -175 -403 -171
-407 2 -2 36 12 77 31 41 19 155 71 254 116 250 114 612 281 1070 493 215 99
442 203 505 232 63 29 210 96 325 149 227 106 537 249 625 289 30 14 177 81
325 150 149 68 509 235 800 370 292 134 742 343 1000 462 259 120 526 244 595
275 69 32 307 142 530 245 223 103 461 213 530 245 69 31 224 103 345 160 121
56 247 115 280 130 91 42 566 262 885 410 157 73 310 144 340 158 52 23 294
135 880 407 146 67 418 193 605 280 187 86 495 229 685 317 190 88 467 217
615 285 475 221 942 437 1245 578 162 76 313 146 335 155 22 10 168 77 325
150 603 280 995 462 1260 585 377 174 361 167 675 313 154 71 438 203 630 292
193 89 469 217 615 285 818 379 989 458 1235 573 149 68 302 139 340 157 39
18 192 89 340 158 149 68 423 195 610 282 187 86 459 213 605 280 349 162 820
380 895 415 502 231 632 292 753 351 136 66 168 90 120 88 -13 -1 -124 -19
-248 -40z"/>
<path d="M17685 32803 c-363 -8 -717 -26 -1010 -53 -1234 -112 -2324 -321
-3415 -652 -1542 -468 -3076 -1213 -4405 -2140 -206 -144 -212 -148 -440 -318
-805 -601 -1582 -1309 -2255 -2055 -979 -1086 -1826 -2335 -2449 -3610 -180
-369 -281 -590 -427 -944 -554 -1337 -892 -2622 -1100 -4193 l-28 -206 -33 -7
c-82 -15 -577 -24 -1320 -25 l-803 0 0 -500 0 -500 1028 0 1029 0 6 -492 c13
-985 108 -1979 286 -2978 208 -1164 575 -2355 1073 -3475 25 -55 67 -149 93
-210 87 -195 430 -873 568 -1121 409 -735 879 -1449 1365 -2074 320 -410 759
-888 1394 -1515 670 -662 970 -926 1522 -1339 598 -448 1100 -776 1785 -1169
113 -64 502 -271 661 -351 1554 -779 3212 -1284 5035 -1535 251 -35 806 -101
843 -101 9 0 12 -131 12 -620 l0 -620 500 0 500 0 2 593 3 592 380 17 c1054
46 1609 100 2410 234 2229 373 4351 1216 6194 2462 753 509 1502 1114 2106
1703 695 678 1200 1249 1744 1973 805 1070 1486 2284 1969 3511 255 646 576
1610 653 1955 19 85 25 170 12 170 -26 0 -532 -292 -1113 -643 -666 -402
-1714 -1032 -1790 -1076 -439 -255 -586 -338 -810 -460 -334 -183 -520 -281
-935 -493 -1718 -879 -2770 -1354 -3310 -1493 -218 -56 -276 -60 -840 -60
-427 0 -534 3 -660 18 -691 83 -1132 293 -1601 761 -248 248 -413 475 -554
761 -198 401 -286 786 -305 1335 -20 563 54 870 423 1750 440 1051 612 1369
1652 3050 69 113 227 368 350 568 l223 362 1361 0 c748 0 2006 3 2794 7 l1432
6 -2 496 -3 496 -2345 6 c-2338 6 -2515 9 -2592 40 -16 6 -28 17 -28 23 0 6
13 43 29 82 17 38 42 114 56 169 77 288 -9 765 -205 1143 -156 300 -386 532
-628 632 -269 113 -659 140 -995 71 -571 -119 -1032 -453 -2192 -1591 -165
-162 -363 -356 -440 -432 l-140 -138 -1154 0 -1153 0 6 528 c3 290 8 892 11
1337 3 446 8 876 11 956 l6 147 236 168 c755 539 1085 822 1303 1116 160 215
309 645 355 1018 20 166 15 497 -10 632 -23 126 -78 286 -133 386 -102 186
-343 375 -615 485 -187 75 -273 85 -778 93 l-385 6 -3 579 -2 579 -498 -2
-497 -3 -3 -757 -2 -757 -198 -137 c-577 -402 -942 -676 -1442 -1083 -883
-720 -1679 -1448 -2625 -2402 -705 -711 -1151 -1196 -1814 -1974 -556 -653
-706 -829 -741 -872 l-35 -43 -3280 0 -3281 0 22 253 c50 570 100 961 175
1392 375 2137 1187 4089 2433 5845 1022 1442 2376 2729 3871 3682 1173 748
2492 1338 3790 1697 768 212 2089 454 2605 478 114 5 148 11 220 35 315 110
1399 649 1635 814 21 15 13 15 -350 7z m625 -8034 c173 -12 324 -41 397 -76
122 -57 217 -195 249 -360 42 -222 -15 -579 -142 -884 -97 -235 -319 -479
-674 -745 -104 -78 -428 -304 -435 -304 -3 0 -5 536 -5 1190 l0 1190 233 0
c127 0 297 -5 377 -11z m-1626 -576 c4 -32 9 -614 12 -1293 l6 -1235 -218
-180 c-332 -275 -436 -365 -593 -513 -526 -498 -924 -1049 -1499 -2075 l-167
-298 -1635 4 c-1654 5 -1744 7 -1778 41 -15 15 -5 27 507 621 888 1029 1133
1299 1600 1765 866 865 2043 1911 2976 2646 538 424 739 574 769 574 10 0 16
-19 20 -57z m10 -3450 c3 -21 6 -512 6 -1090 l0 -1053 -622 0 c-613 0 -1014
12 -1031 29 -22 22 277 529 555 943 83 125 198 267 425 525 248 282 631 683
652 683 5 0 11 -17 15 -37z m6661 -648 c239 -64 424 -250 515 -519 41 -122 54
-225 47 -380 -7 -166 -33 -260 -127 -453 l-69 -143 -1378 0 -1378 1 125 121
c349 338 907 838 1160 1040 240 191 476 303 725 344 100 17 299 11 380 -11z
m-14367 -2524 c-13 -15 -145 -174 -293 -352 -149 -178 -312 -373 -361 -434
-680 -830 -1469 -1796 -2030 -2485 -286 -352 -739 -911 -1174 -1450 -273 -339
-529 -647 -568 -684 -34 -31 -45 -29 -67 14 -32 62 -250 617 -373 950 -384
1040 -669 2304 -772 3420 -26 287 -70 1037 -61 1046 2 2 1291 4 2863 4 l2859
0 -23 -29z m4797 7 c-4 -13 -20 -63 -35 -113 -109 -348 -149 -514 -181 -745
-18 -127 -19 -642 -1 -765 40 -279 110 -500 238 -744 115 -222 228 -376 398
-547 253 -253 491 -388 811 -462 343 -80 858 -86 1285 -16 86 14 343 74 384
90 15 6 16 -380 16 -5231 l0 -5238 -102 7 c-104 7 -326 29 -673 67 -392 42
-940 131 -1385 225 -954 200 -1902 501 -2765 877 -292 127 -363 160 -640 296
-915 449 -1817 1022 -2625 1668 -951 760 -2120 2052 -2885 3186 -304 452 -710
1152 -730 1260 -4 20 -5 47 -1 59 8 32 223 300 1892 2353 776 955 1224 1504
1689 2070 153 187 376 459 494 604 119 145 371 453 561 685 l346 421 1289 5
c710 3 1591 6 1958 8 l668 2 -6 -22z m2910 -1060 c-4 -596 -10 -1179 -14
-1297 l-6 -214 -140 -49 c-292 -103 -422 -125 -785 -135 -391 -10 -508 9 -736
116 -402 191 -655 533 -746 1009 -20 101 -23 150 -23 362 0 369 33 545 197
1042 l81 248 1090 0 1090 0 -8 -1082z m2423 1065 c-8 -10 -235 -270 -504 -578
-635 -728 -800 -918 -854 -984 l-45 -53 -6 128 c-4 71 -7 438 -8 817 l-1 687
717 0 c681 0 715 -1 701 -17z m3992 11 c0 -3 -154 -252 -342 -553 -688 -1101
-942 -1525 -1181 -1977 -80 -152 -247 -489 -247 -499 0 -2 -15 -36 -34 -77
-19 -40 -50 -109 -69 -153 -284 -661 -342 -801 -427 -1030 -82 -224 -108 -306
-144 -450 -68 -279 -79 -408 -80 -920 0 -521 14 -682 85 -974 42 -170 144
-455 243 -678 104 -235 284 -527 453 -738 150 -188 408 -436 593 -571 446
-326 949 -543 1460 -628 305 -51 836 -70 1302 -47 484 24 633 52 1003 186 611
221 1116 451 2485 1127 523 259 920 448 939 448 22 0 -254 -426 -482 -745
-989 -1380 -2279 -2596 -3748 -3529 -773 -492 -1659 -932 -2454 -1221 -860
-312 -1867 -556 -2836 -689 -596 -82 -802 -97 -1421 -103 l-508 -5 0 5614 0
5614 213 220 c414 429 798 852 1263 1390 109 127 348 403 529 612 l330 381
1538 1 c845 0 1537 -3 1537 -6z"/>
<path d="M29540 31233 c-59 -93 -164 -388 -315 -888 -76 -252 -82 -269 -245
-778 -201 -629 -217 -660 -388 -746 -205 -102 -713 -269 -1557 -511 -654 -188
-937 -287 -964 -339 -41 -75 224 -100 1394 -126 287 -7 964 -32 1090 -40 146
-10 347 -39 350 -49 2 -6 11 -276 20 -601 38 -1450 54 -1842 81 -2057 20 -159
97 25 514 1217 237 680 314 884 357 952 28 44 250 125 1198 441 754 251 1147
392 1303 468 80 38 93 48 90 67 -2 12 -15 28 -30 35 -67 32 -377 55 -958 72
-1078 31 -1428 44 -1643 59 -59 4 -112 12 -117 17 -21 21 -31 381 -41 1454
-11 1212 -14 1317 -44 1368 -29 48 -58 43 -95 -15z"/>
<path d="M36653 23638 c-65 -103 -179 -384 -293 -723 -43 -126 -139 -410 -213
-631 -207 -613 -290 -810 -374 -884 -67 -59 -221 -130 -425 -195 -1112 -359
-1904 -631 -2029 -697 -69 -36 -124 -90 -115 -113 24 -63 295 -87 1526 -135
609 -24 1249 -62 1270 -75 14 -9 30 -423 50 -1270 17 -756 40 -1318 56 -1412
3 -17 13 -34 22 -38 48 -19 121 151 322 755 306 916 436 1287 496 1414 30 65
68 97 174 151 163 82 441 176 1010 345 1201 354 1508 461 1550 539 16 31 12
96 -7 120 -12 14 -38 25 -73 31 -134 23 -623 45 -1335 60 -899 19 -1358 39
-1378 59 -22 22 -42 394 -57 1056 -25 1092 -43 1430 -86 1599 -24 99 -48 110
-91 44z"/>
</g>
</svg>
